<?xml version="1.0" encoding="UTF-8" standalone="no"?>
<!-- Uploaded to: SVG Repo, www.svgrepo.com, Generator: SVG Repo Mixer Tools -->

<svg
   version="1.1"
   id="Layer_1"
   viewBox="0 0 512 512"
   xml:space="preserve"
   sodipodi:docname="erdeditor.svg"
   inkscape:version="1.2.2 (b0a8486541, 2022-12-01)"
   xmlns:inkscape="http://www.inkscape.org/namespaces/inkscape"
   xmlns:sodipodi="http://sodipodi.sourceforge.net/DTD/sodipodi-0.dtd"
   xmlns="http://www.w3.org/2000/svg"
   xmlns:svg="http://www.w3.org/2000/svg"><defs
   id="defs35" /><sodipodi:namedview
   id="namedview33"
   pagecolor="#ffffff"
   bordercolor="#000000"
   borderopacity="0.25"
   inkscape:showpageshadow="2"
   inkscape:pageopacity="0.0"
   inkscape:pagecheckerboard="0"
   inkscape:deskcolor="#d1d1d1"
   showgrid="false"
   inkscape:zoom="1.9433594"
   inkscape:cx="239.01909"
   inkscape:cy="255.22814"
   inkscape:current-layer="Layer_1" />
<rect
   x="-202.01825"
   y="-301.86508"
   transform="rotate(135)"
   style="fill:#e06f54;stroke-width:0.868526"
   width="29.000944"
   height="0.044294819"
   id="rect2" />
<path
   style="fill:#6e6057;stroke-width:0.868535"
   d="m 459.51765,131.24566 -41.76607,41.76608 -81.95922,-81.959231 41.76606,-41.766066 c 22.62618,-22.626182 59.40252,-22.626182 81.95923,-0.06861 l 0.0685,0.06861 c 5.67326,5.673264 9.9117,12.235908 12.71445,19.139886 1.36708,3.55491 2.39282,7.040337 3.07636,10.732476 0.82077,3.55404 1.1621,7.313925 1.09349,11.073809 0.0685,5.536906 -0.75216,11.142426 -2.3242,16.542106 -2.66726,8.95371 -7.52064,17.36199 -14.62872,24.47094 z"
   id="path4" />
<path
   style="fill:#615349;stroke-width:0.868535"
   d="m 459.51765,131.24566 -41.76607,41.76608 -40.94617,-40.94618 82.77997,-82.779986 c 5.67326,5.673266 9.91173,12.235908 12.71449,19.139886 1.43567,3.486296 2.46141,7.108952 3.07633,10.732476 0.82077,3.554043 1.1621,7.313927 1.09349,11.07381 0.0685,5.536904 -0.75214,11.142424 -2.32419,16.542104 -2.66641,8.95458 -7.51977,17.36286 -14.62785,24.47181 z"
   id="path6" />
<path
   style="fill:#e79d2e;stroke-width:0.868535"
   d="M 472.4918,451.98924 56.806174,36.303595 c -4.134222,-4.148988 -10.370296,-5.395334 -15.802979,-3.144093 -5.419651,2.241684 -8.949374,7.529321 -8.949374,13.39627 V 462.24139 c 0,8.01051 6.490556,14.50106 14.501046,14.50106 H 462.24049 c 5.86174,0 11.14939,-3.5306 13.39542,-8.94937 2.24603,-5.42054 0.99966,-11.66007 -3.14411,-15.80384 z M 262.95883,380.78767 c -2.24169,5.41878 -7.52846,8.95024 -13.39542,8.95024 H 133.55766 c -8.01049,0 -14.50105,-6.49054 -14.50105,-14.50104 V 259.23199 c 0,-5.86696 3.5306,-11.15374 8.94938,-13.3954 5.42312,-2.25126 11.66356,-1.00578 15.80386,3.14408 l 116.00661,116.00404 c 4.14813,4.14463 5.38926,10.38505 3.14237,15.80296 z"
   id="path8" />
<path
   style="fill:#d8842a;stroke-width:0.868535"
   d="m 472.4918,451.98924 -207.80461,-207.80548 -62.83583,62.83584 57.9651,57.96511 c 4.14899,4.14463 5.39013,10.38417 3.1441,15.80384 -2.24169,5.41877 -7.52845,8.94936 -13.3954,8.94936 H 133.5594 c -3.98569,0 -7.59361,-1.60853 -10.21397,-4.20977 l -86.999313,86.99757 c 2.620368,2.60127 6.222176,4.21587 10.207881,4.21587 H 462.23962 c 5.86175,0 11.15026,-3.53059 13.39629,-8.94938 2.24603,-5.41878 0.99966,-11.65919 -3.14411,-15.80296 z"
   id="path10" />
<g
   id="g22"
   transform="matrix(0.86853409,0,0,0.86853409,32.052083,32.05212)">
	<path
   style="fill:#95673f"
   d="M 50.088,144.698 H 0.002 v 33.391 h 50.087 c 9.223,0 16.696,-7.473 16.696,-16.696 -10e-4,-9.222 -7.474,-16.695 -16.697,-16.695 z"
   id="path12" />
	<path
   style="fill:#95673f"
   d="M 50.088,211.48 H 0.002 v 33.391 h 50.087 c 9.223,0 16.696,-7.473 16.696,-16.696 0,-9.223 -7.474,-16.695 -16.697,-16.695 z"
   id="path14" />
	<path
   style="fill:#95673f"
   d="M 50.088,278.262 H 0.002 v 33.391 h 50.087 c 9.223,0 16.696,-7.473 16.696,-16.696 -10e-4,-9.222 -7.474,-16.695 -16.697,-16.695 z"
   id="path16" />
	<path
   style="fill:#95673f"
   d="M 50.088,345.044 H 0.002 v 33.391 h 50.087 c 9.223,0 16.696,-7.473 16.696,-16.696 0,-9.223 -7.474,-16.695 -16.697,-16.695 z"
   id="path18" />
	<path
   style="fill:#95673f"
   d="M 50.088,411.827 H 0.002 v 33.391 h 50.087 c 9.223,0 16.696,-7.473 16.696,-16.696 0,-9.223 -7.474,-16.695 -16.697,-16.695 z"
   id="path20" />
</g>
<path
   style="fill:#6bbae2;stroke-width:0.868535"
   d="m 283.45709,303.96844 1.68236,-0.53154 c 2.18697,-0.68354 4.16983,-1.982 5.80962,-3.62355 L 438.25766,152.50477 356.29757,70.545553 208.98986,217.85329 c -1.64065,1.64065 -2.94,3.62351 -3.62355,5.80962 l -0.53153,1.68233 z"
   id="path24" />
<path
   style="fill:#60aed5;stroke-width:0.868535"
   d="m 283.45709,303.96844 1.68236,-0.53154 c 2.18697,-0.68354 4.16983,-1.982 5.80962,-3.62355 L 438.25766,152.50477 397.31235,111.5586 244.17938,264.69158 Z"
   id="path26" />
<path
   style="fill:#ffd9b3;stroke-width:0.868535"
   d="m 208.63116,218.29884 c -1.45132,1.55641 -2.63688,3.35861 -3.26396,5.36407 l -28.43667,89.95755 c -1.64066,5.1947 -0.27361,10.80021 3.5549,14.62784 l 0.0685,0.0685 c 2.73503,2.73415 6.42543,4.23845 10.25393,4.23845 1.43569,-0.0685 2.87138,-0.27359 4.37568,-0.68354 l 89.95754,-28.43668 c 2.00719,-0.62621 3.80766,-1.81261 5.36407,-3.26393 z"
   id="path28" />
<path
   style="fill:#ffc080;stroke-width:0.868535"
   d="m 249.60077,259.2702 -69.04847,69.04845 c 2.73502,2.73416 6.42542,4.23845 10.25391,4.23845 1.4357,-0.0685 2.87139,-0.2736 4.3757,-0.68352 l 89.95754,-28.43668 c 2.00717,-0.62622 3.80766,-1.81264 5.36406,-3.26396 z"
   id="path30" />
</svg>
