<?xml version="1.0" encoding="UTF-8" standalone="no"?>
<svg
   version="1.2"
   width="20mm"
   height="20mm"
   viewBox="0 0 2000 2000"
   preserveAspectRatio="xMidYMid"
   fill-rule="evenodd"
   stroke-width="28.222"
   stroke-linejoin="round"
   xml:space="preserve"
   id="svg96"
   sodipodi:docname="sql_editor_settings.svg"
   inkscape:version="1.2.2 (b0a8486541, 2022-12-01)"
   xmlns:inkscape="http://www.inkscape.org/namespaces/inkscape"
   xmlns:sodipodi="http://sodipodi.sourceforge.net/DTD/sodipodi-0.dtd"
   xmlns="http://www.w3.org/2000/svg"
   xmlns:svg="http://www.w3.org/2000/svg"
   xmlns:ooo="http://xml.openoffice.org/svg/export"><sodipodi:namedview
   id="namedview98"
   pagecolor="#ffffff"
   bordercolor="#000000"
   borderopacity="0.25"
   inkscape:showpageshadow="2"
   inkscape:pageopacity="0.0"
   inkscape:pagecheckerboard="0"
   inkscape:deskcolor="#d1d1d1"
   inkscape:document-units="mm"
   showgrid="false"
   inkscape:zoom="13.163021"
   inkscape:cx="35.136311"
   inkscape:cy="37.947216"
   inkscape:current-layer="id1" />
 <defs
   class="ClipPathGroup"
   id="defs8">
  <clipPath
   id="presentation_clip_path"
   clipPathUnits="userSpaceOnUse">
   <rect
   x="0"
   y="0"
   width="2000"
   height="2000"
   id="rect2" />
  </clipPath>
  <clipPath
   id="presentation_clip_path_shrink"
   clipPathUnits="userSpaceOnUse">
   <rect
   x="2"
   y="2"
   width="1996"
   height="1996"
   id="rect5" />
  </clipPath>
 </defs>
 <defs
   class="TextShapeIndex"
   id="defs12">
  <g
   ooo:slide="id1"
   ooo:id-list="id3 id4 id5 id6 id7"
   id="g10" />
 </defs>
 <defs
   class="EmbeddedBulletChars"
   id="defs44">
  <g
   id="bullet-char-template-57356"
   transform="scale(0.00048828125,-0.00048828125)">
   <path
   d="M 580,1141 L 1163,571 580,0 -4,571 580,1141 Z"
   id="path14" />
  </g>
  <g
   id="bullet-char-template-57354"
   transform="scale(0.00048828125,-0.00048828125)">
   <path
   d="M 8,1128 L 1137,1128 1137,0 8,0 8,1128 Z"
   id="path17" />
  </g>
  <g
   id="bullet-char-template-10146"
   transform="scale(0.00048828125,-0.00048828125)">
   <path
   d="M 174,0 L 602,739 174,1481 1456,739 174,0 Z M 1358,739 L 309,1346 659,739 1358,739 Z"
   id="path20" />
  </g>
  <g
   id="bullet-char-template-10132"
   transform="scale(0.00048828125,-0.00048828125)">
   <path
   d="M 2015,739 L 1276,0 717,0 1260,543 174,543 174,936 1260,936 717,1481 1274,1481 2015,739 Z"
   id="path23" />
  </g>
  <g
   id="bullet-char-template-10007"
   transform="scale(0.00048828125,-0.00048828125)">
   <path
   d="M 0,-2 C -7,14 -16,27 -25,37 L 356,567 C 262,823 215,952 215,954 215,979 228,992 255,992 264,992 276,990 289,987 310,991 331,999 354,1012 L 381,999 492,748 772,1049 836,1024 860,1049 C 881,1039 901,1025 922,1006 886,937 835,863 770,784 769,783 710,716 594,584 L 774,223 C 774,196 753,168 711,139 L 727,119 C 717,90 699,76 672,76 641,76 570,178 457,381 L 164,-76 C 142,-110 111,-127 72,-127 30,-127 9,-110 8,-76 1,-67 -2,-52 -2,-32 -2,-23 -1,-13 0,-2 Z"
   id="path26" />
  </g>
  <g
   id="bullet-char-template-10004"
   transform="scale(0.00048828125,-0.00048828125)">
   <path
   d="M 285,-33 C 182,-33 111,30 74,156 52,228 41,333 41,471 41,549 55,616 82,672 116,743 169,778 240,778 293,778 328,747 346,684 L 369,508 C 377,444 397,411 428,410 L 1163,1116 C 1174,1127 1196,1133 1229,1133 1271,1133 1292,1118 1292,1087 L 1292,965 C 1292,929 1282,901 1262,881 L 442,47 C 390,-6 338,-33 285,-33 Z"
   id="path29" />
  </g>
  <g
   id="bullet-char-template-9679"
   transform="scale(0.00048828125,-0.00048828125)">
   <path
   d="M 813,0 C 632,0 489,54 383,161 276,268 223,411 223,592 223,773 276,916 383,1023 489,1130 632,1184 813,1184 992,1184 1136,1130 1245,1023 1353,916 1407,772 1407,592 1407,412 1353,268 1245,161 1136,54 992,0 813,0 Z"
   id="path32" />
  </g>
  <g
   id="bullet-char-template-8226"
   transform="scale(0.00048828125,-0.00048828125)">
   <path
   d="M 346,457 C 273,457 209,483 155,535 101,586 74,649 74,723 74,796 101,859 155,911 209,963 273,989 346,989 419,989 480,963 531,910 582,859 608,796 608,723 608,648 583,586 532,535 482,483 420,457 346,457 Z"
   id="path35" />
  </g>
  <g
   id="bullet-char-template-8211"
   transform="scale(0.00048828125,-0.00048828125)">
   <path
   d="M -4,459 L 1135,459 1135,606 -4,606 -4,459 Z"
   id="path38" />
  </g>
  <g
   id="bullet-char-template-61548"
   transform="scale(0.00048828125,-0.00048828125)">
   <path
   d="M 173,740 C 173,903 231,1043 346,1159 462,1274 601,1332 765,1332 928,1332 1067,1274 1183,1159 1299,1043 1357,903 1357,740 1357,577 1299,437 1183,322 1067,206 928,148 765,148 601,148 462,206 346,322 231,437 173,577 173,740 Z"
   id="path41" />
  </g>
 </defs>
 
 <g
   class="SlideGroup"
   id="g94">
  <g
   id="g92">
   <g
   id="container-id1">
    <g
   id="id1"
   class="Slide"
   clip-path="url(#presentation_clip_path)">
     <g
   class="Page"
   id="g88">
      <g
   class="com.sun.star.drawing.CustomShape"
   id="g58">
       <g
   id="id3">
        <rect
   class="BoundingBox"
   stroke="none"
   fill="none"
   x="75"
   y="75"
   width="1852"
   height="1852"
   id="rect51" />
        <path
   fill="rgb(180,199,220)"
   stroke="none"
   d="M 219,100 L 220,100 C 199,100 178,106 160,116 142,127 127,142 116,160 106,178 100,199 100,220 L 100,1781 100,1781 C 100,1802 106,1823 116,1841 127,1859 142,1874 160,1885 178,1895 199,1901 220,1901 L 1781,1900 1781,1901 C 1802,1901 1823,1895 1841,1885 1859,1874 1874,1859 1885,1841 1895,1823 1901,1802 1901,1781 L 1900,219 1901,220 1901,220 C 1901,199 1895,178 1885,160 1874,142 1859,127 1841,116 1823,106 1802,100 1781,100 L 219,100 Z"
   id="path53" />
        <path
   fill="none"
   stroke="rgb(53,82,105)"
   stroke-width="50"
   stroke-linejoin="round"
   d="M 219,100 L 220,100 C 199,100 178,106 160,116 142,127 127,142 116,160 106,178 100,199 100,220 L 100,1781 100,1781 C 100,1802 106,1823 116,1841 127,1859 142,1874 160,1885 178,1895 199,1901 220,1901 L 1781,1900 1781,1901 C 1802,1901 1823,1895 1841,1885 1859,1874 1874,1859 1885,1841 1895,1823 1901,1802 1901,1781 L 1900,219 1901,220 1901,220 C 1901,199 1895,178 1885,160 1874,142 1859,127 1841,116 1823,106 1802,100 1781,100 L 219,100 Z"
   id="path55" />
       </g>
      </g>
      <g
   class="com.sun.star.drawing.CustomShape"
   id="g65">
       <g
   id="id4">
        <rect
   class="BoundingBox"
   stroke="none"
   fill="none"
   x="200"
   y="350"
   width="1601"
   height="1451"
   id="rect60" />
        <path
   fill="rgb(0,0,0)"
   stroke="none"
   d="M 1000,1800 L 200,1800 200,350 1800,350 1800,1800 1000,1800 Z"
   id="path62"
   style="fill:#2e2e2e;fill-opacity:1" />
       </g><g
   id="g6360"><rect
     style="opacity:1;fill:#a4a4a4;fill-opacity:1;stroke:none;stroke-width:69.6;stroke-linecap:round;stroke-linejoin:round;stroke-dasharray:none;stroke-opacity:1"
     id="rect2031"
     width="140.81662"
     height="1145.0393"
     x="415.4017"
     y="511.14844"
     ry="64.095871" /><g
     id="g6354"><path
       style="opacity:1;fill:#656565;fill-opacity:1;stroke:none;stroke-width:69.6;stroke-linecap:round;stroke-linejoin:round;stroke-dasharray:none;stroke-opacity:1"
       id="path2139"
       sodipodi:type="arc"
       sodipodi:cx="484.57007"
       sodipodi:cy="842.02838"
       sodipodi:rx="206.383"
       sodipodi:ry="206.383"
       sodipodi:start="0.53396878"
       sodipodi:end="0.52852368"
       sodipodi:arc-type="slice"
       d="m 662.2233,947.06776 a 206.383,206.383 0 0 1 -282.45068,72.75664 206.383,206.383 0 0 1 -73.1411,-282.35134 206.383,206.383 0 0 1 282.25155,-73.52539 206.383,206.383 0 0 1 73.90954,282.1512 L 484.57007,842.02838 Z" /><path
       style="fill:#af9bff;fill-opacity:1;stroke:none;stroke-width:69.6;stroke-linecap:round;stroke-linejoin:round;stroke-dasharray:none;stroke-opacity:1;opacity:0.7163909"
       id="path2139-3"
       sodipodi:type="arc"
       sodipodi:cx="486.91919"
       sodipodi:cy="843.33838"
       sodipodi:rx="135.58786"
       sodipodi:ry="135.58786"
       sodipodi:start="0.53396878"
       sodipodi:end="0.52852368"
       sodipodi:arc-type="slice"
       d="M 603.6324,912.34631 A 135.58786,135.58786 0 0 1 418.0702,960.14542 135.58786,135.58786 0 0 1 370.01854,774.64846 135.58786,135.58786 0 0 1 555.44991,726.34433 135.58786,135.58786 0 0 1 604.00642,911.70978 L 486.91919,843.33838 Z" /></g></g><g
   id="g6360-2"
   transform="matrix(1,0,0,-1,516.85622,2165.0242)"><rect
     style="opacity:1;fill:#a4a4a4;fill-opacity:1;stroke:none;stroke-width:69.6;stroke-linecap:round;stroke-linejoin:round;stroke-dasharray:none;stroke-opacity:1"
     id="rect2031-9"
     width="140.81662"
     height="1145.0393"
     x="415.4017"
     y="511.14844"
     ry="64.095871" /><g
     id="g6354-1"><path
       style="opacity:1;fill:#656565;fill-opacity:1;stroke:none;stroke-width:69.6;stroke-linecap:round;stroke-linejoin:round;stroke-dasharray:none;stroke-opacity:1"
       id="path2139-2"
       sodipodi:type="arc"
       sodipodi:cx="484.57007"
       sodipodi:cy="842.02838"
       sodipodi:rx="206.383"
       sodipodi:ry="206.383"
       sodipodi:start="0.53396878"
       sodipodi:end="0.52852368"
       sodipodi:arc-type="slice"
       d="m 662.2233,947.06776 a 206.383,206.383 0 0 1 -282.45068,72.75664 206.383,206.383 0 0 1 -73.1411,-282.35134 206.383,206.383 0 0 1 282.25155,-73.52539 206.383,206.383 0 0 1 73.90954,282.1512 L 484.57007,842.02838 Z" /><path
       style="fill:#ff9b9b;fill-opacity:1;stroke:none;stroke-width:69.6;stroke-linecap:round;stroke-linejoin:round;stroke-dasharray:none;stroke-opacity:1;opacity:0.7163909"
       id="path2139-3-7"
       sodipodi:type="arc"
       sodipodi:cx="486.91919"
       sodipodi:cy="843.33838"
       sodipodi:rx="135.58786"
       sodipodi:ry="135.58786"
       sodipodi:start="0.53396878"
       sodipodi:end="0.52852368"
       sodipodi:arc-type="slice"
       d="M 603.6324,912.34631 A 135.58786,135.58786 0 0 1 418.0702,960.14542 135.58786,135.58786 0 0 1 370.01854,774.64846 135.58786,135.58786 0 0 1 555.44991,726.34433 135.58786,135.58786 0 0 1 604.00642,911.70978 L 486.91919,843.33838 Z" /></g></g><g
   id="g6360-0"
   transform="translate(1014.5375,7.4364451)"><rect
     style="opacity:1;fill:#a4a4a4;fill-opacity:1;stroke:none;stroke-width:69.6;stroke-linecap:round;stroke-linejoin:round;stroke-dasharray:none;stroke-opacity:1"
     id="rect2031-93"
     width="140.81662"
     height="1145.0393"
     x="415.4017"
     y="511.14844"
     ry="64.095871" /><g
     id="g6354-6"
     transform="translate(1.3571274,191.46869)"><path
       style="opacity:1;fill:#656565;fill-opacity:1;stroke:none;stroke-width:69.6;stroke-linecap:round;stroke-linejoin:round;stroke-dasharray:none;stroke-opacity:1"
       id="path2139-0"
       sodipodi:type="arc"
       sodipodi:cx="484.57007"
       sodipodi:cy="842.02838"
       sodipodi:rx="206.383"
       sodipodi:ry="206.383"
       sodipodi:start="0.53396878"
       sodipodi:end="0.52852368"
       sodipodi:arc-type="slice"
       d="m 662.2233,947.06776 a 206.383,206.383 0 0 1 -282.45068,72.75664 206.383,206.383 0 0 1 -73.1411,-282.35134 206.383,206.383 0 0 1 282.25155,-73.52539 206.383,206.383 0 0 1 73.90954,282.1512 L 484.57007,842.02838 Z" /><path
       style="fill:#9bffa5;fill-opacity:1;stroke:none;stroke-width:69.6;stroke-linecap:round;stroke-linejoin:round;stroke-dasharray:none;stroke-opacity:1;opacity:0.7163909"
       id="path2139-3-6"
       sodipodi:type="arc"
       sodipodi:cx="486.91919"
       sodipodi:cy="843.33838"
       sodipodi:rx="135.58786"
       sodipodi:ry="135.58786"
       sodipodi:start="0.53396878"
       sodipodi:end="0.52852368"
       sodipodi:arc-type="slice"
       d="M 603.6324,912.34631 A 135.58786,135.58786 0 0 1 418.0702,960.14542 135.58786,135.58786 0 0 1 370.01854,774.64846 135.58786,135.58786 0 0 1 555.44991,726.34433 135.58786,135.58786 0 0 1 604.00642,911.70978 L 486.91919,843.33838 Z" /></g></g>
      </g>
      
      <g
   class="com.sun.star.drawing.CustomShape"
   id="g79">
       <g
   id="id6">
        <rect
   class="BoundingBox"
   stroke="none"
   fill="none"
   x="1650"
   y="149"
   width="152"
   height="153"
   id="rect74" />
        <path
   fill="rgb(53,82,105)"
   stroke="none"
   d="M 1801,226 C 1801,239 1798,252 1791,263 1784,275 1775,284 1763,291 1752,298 1739,301 1726,301 1712,301 1699,298 1688,291 1676,284 1667,275 1660,263 1653,252 1650,239 1650,226 1650,212 1653,199 1660,188 1667,176 1676,167 1688,160 1699,153 1712,150 1726,150 1739,150 1752,153 1763,160 1775,167 1784,176 1791,188 1798,199 1801,212 1801,225 L 1801,226 Z"
   id="path76" />
       </g>
      </g>
      
     </g>
    </g>
   </g>
  </g>
 </g>
</svg>
