<?xml version="1.0" encoding="UTF-8" standalone="no"?>
<svg
   version="1.2"
   width="20mm"
   height="20mm"
   viewBox="0 0 2000 2000"
   preserveAspectRatio="xMidYMid"
   fill-rule="evenodd"
   stroke-width="28.222"
   stroke-linejoin="round"
   xml:space="preserve"
   id="svg95"
   sodipodi:docname="tx_apply.svg"
   inkscape:version="1.2.2 (b0a8486541, 2022-12-01)"
   xmlns:inkscape="http://www.inkscape.org/namespaces/inkscape"
   xmlns:sodipodi="http://sodipodi.sourceforge.net/DTD/sodipodi-0.dtd"
   xmlns="http://www.w3.org/2000/svg"
   xmlns:svg="http://www.w3.org/2000/svg"
   xmlns:ooo="http://xml.openoffice.org/svg/export"><sodipodi:namedview
   id="namedview97"
   pagecolor="#ffffff"
   bordercolor="#000000"
   borderopacity="0.25"
   inkscape:showpageshadow="2"
   inkscape:pageopacity="0.0"
   inkscape:pagecheckerboard="0"
   inkscape:deskcolor="#d1d1d1"
   inkscape:document-units="mm"
   showgrid="false"
   inkscape:zoom="6.5815103"
   inkscape:cx="-26.969494"
   inkscape:cy="41.25193"
   inkscape:current-layer="svg95" />
 <defs
   class="ClipPathGroup"
   id="defs8">
  <clipPath
   id="presentation_clip_path"
   clipPathUnits="userSpaceOnUse">
   <rect
   x="0"
   y="0"
   width="2000"
   height="2000"
   id="rect2" />
  </clipPath>
  <clipPath
   id="presentation_clip_path_shrink"
   clipPathUnits="userSpaceOnUse">
   <rect
   x="2"
   y="2"
   width="1996"
   height="1996"
   id="rect5" />
  </clipPath>
 <linearGradient
   id="gradient1-2"
   x1="419"
   y1="-5"
   x2="1581"
   y2="2006"
   gradientUnits="userSpaceOnUse">
           <stop
   offset="0"
   style="stop-color:rgb(119,188,101)"
   id="stop53-7" />
           <stop
   offset="1"
   style="stop-color:rgb(18,118,34)"
   id="stop55-0" />
          </linearGradient></defs>
 <defs
   class="TextShapeIndex"
   id="defs12">
  <g
   ooo:slide="id1"
   ooo:id-list="id3 id4 id5"
   id="g10" />
 </defs>
 <defs
   class="EmbeddedBulletChars"
   id="defs44">
  <g
   id="bullet-char-template-57356"
   transform="scale(0.00048828125,-0.00048828125)">
   <path
   d="M 580,1141 L 1163,571 580,0 -4,571 580,1141 Z"
   id="path14" />
  </g>
  <g
   id="bullet-char-template-57354"
   transform="scale(0.00048828125,-0.00048828125)">
   <path
   d="M 8,1128 L 1137,1128 1137,0 8,0 8,1128 Z"
   id="path17" />
  </g>
  <g
   id="bullet-char-template-10146"
   transform="scale(0.00048828125,-0.00048828125)">
   <path
   d="M 174,0 L 602,739 174,1481 1456,739 174,0 Z M 1358,739 L 309,1346 659,739 1358,739 Z"
   id="path20" />
  </g>
  <g
   id="bullet-char-template-10132"
   transform="scale(0.00048828125,-0.00048828125)">
   <path
   d="M 2015,739 L 1276,0 717,0 1260,543 174,543 174,936 1260,936 717,1481 1274,1481 2015,739 Z"
   id="path23" />
  </g>
  <g
   id="bullet-char-template-10007"
   transform="scale(0.00048828125,-0.00048828125)">
   <path
   d="M 0,-2 C -7,14 -16,27 -25,37 L 356,567 C 262,823 215,952 215,954 215,979 228,992 255,992 264,992 276,990 289,987 310,991 331,999 354,1012 L 381,999 492,748 772,1049 836,1024 860,1049 C 881,1039 901,1025 922,1006 886,937 835,863 770,784 769,783 710,716 594,584 L 774,223 C 774,196 753,168 711,139 L 727,119 C 717,90 699,76 672,76 641,76 570,178 457,381 L 164,-76 C 142,-110 111,-127 72,-127 30,-127 9,-110 8,-76 1,-67 -2,-52 -2,-32 -2,-23 -1,-13 0,-2 Z"
   id="path26" />
  </g>
  <g
   id="bullet-char-template-10004"
   transform="scale(0.00048828125,-0.00048828125)">
   <path
   d="M 285,-33 C 182,-33 111,30 74,156 52,228 41,333 41,471 41,549 55,616 82,672 116,743 169,778 240,778 293,778 328,747 346,684 L 369,508 C 377,444 397,411 428,410 L 1163,1116 C 1174,1127 1196,1133 1229,1133 1271,1133 1292,1118 1292,1087 L 1292,965 C 1292,929 1282,901 1262,881 L 442,47 C 390,-6 338,-33 285,-33 Z"
   id="path29" />
  </g>
  <g
   id="bullet-char-template-9679"
   transform="scale(0.00048828125,-0.00048828125)">
   <path
   d="M 813,0 C 632,0 489,54 383,161 276,268 223,411 223,592 223,773 276,916 383,1023 489,1130 632,1184 813,1184 992,1184 1136,1130 1245,1023 1353,916 1407,772 1407,592 1407,412 1353,268 1245,161 1136,54 992,0 813,0 Z"
   id="path32" />
  </g>
  <g
   id="bullet-char-template-8226"
   transform="scale(0.00048828125,-0.00048828125)">
   <path
   d="M 346,457 C 273,457 209,483 155,535 101,586 74,649 74,723 74,796 101,859 155,911 209,963 273,989 346,989 419,989 480,963 531,910 582,859 608,796 608,723 608,648 583,586 532,535 482,483 420,457 346,457 Z"
   id="path35" />
  </g>
  <g
   id="bullet-char-template-8211"
   transform="scale(0.00048828125,-0.00048828125)">
   <path
   d="M -4,459 L 1135,459 1135,606 -4,606 -4,459 Z"
   id="path38" />
  </g>
  <g
   id="bullet-char-template-61548"
   transform="scale(0.00048828125,-0.00048828125)">
   <path
   d="M 173,740 C 173,903 231,1043 346,1159 462,1274 601,1332 765,1332 928,1332 1067,1274 1183,1159 1299,1043 1357,903 1357,740 1357,577 1299,437 1183,322 1067,206 928,148 765,148 601,148 462,206 346,322 231,437 173,577 173,740 Z"
   id="path41" />
  </g>
 </defs>
 
 
<g
   class="com.sun.star.drawing.CustomShape"
   id="g67-9">
       <g
   id="id3-3">
        <rect
   class="BoundingBox"
   stroke="none"
   fill="none"
   x="100"
   y="100"
   width="1802"
   height="1802"
   id="rect51-6" />
        <g
   id="g62-0">
         <defs
   id="defs58-6">
          <linearGradient
   id="RESERVED_FOR_INKSCAPE_DUPLICATE_DEF_000000000"
   x1="419"
   y1="-5"
   x2="1581"
   y2="2006"
   gradientUnits="userSpaceOnUse">
           <stop
   offset="0"
   style="stop-color:rgb(119,188,101)"
   id="stop2510" />
           <stop
   offset="1"
   style="stop-color:rgb(18,118,34)"
   id="stop2512" />
          </linearGradient>
         </defs>
         <path
   style="fill:url(#gradient1-2)"
   d="m 433,150 v 0 l -18,1 -19,1 -18,3 -18,5 -18,5 -17,7 -17,7 -16,9 -16,10 -15,11 -14,11 -14,13 -13,14 -11,14 -11,15 -10,16 -9,16 -7,17 -7,17 -5,18 -5,18 -3,18 -1,19 -1,19 v 1133 1 l 1,18 1,19 3,18 5,18 5,18 7,17 7,17 9,16 10,16 11,15 11,14 13,14 14,13 14,11 15,11 16,10 16,9 17,7 17,7 18,5 18,5 18,3 19,1 19,1 h 1133 1 l 18,-1 19,-1 18,-3 18,-5 18,-5 17,-7 17,-7 16,-9 16,-10 15,-11 14,-11 14,-13 13,-14 11,-14 11,-15 10,-16 9,-16 7,-17 7,-17 5,-18 5,-18 3,-18 1,-19 1,-18 v -1135 1 -1 l -1,-18 -1,-19 -3,-18 -5,-18 -5,-18 -7,-17 -7,-17 -9,-16 -10,-16 -11,-15 -11,-14 -13,-14 -14,-13 -14,-11 -15,-11 -16,-10 -16,-9 -17,-7 -17,-7 -18,-5 -18,-5 -18,-3 -19,-1 -18,-1 z"
   id="path60-2" />
        </g>
        <path
   fill="none"
   stroke="#224b12"
   stroke-width="100"
   stroke-linejoin="round"
   d="m 433,150 v 0 c -49,0 -98,13 -141,38 -43,25 -79,61 -104,104 -25,43 -38,92 -38,142 v 1133 1 c 0,49 13,98 38,141 25,43 61,79 104,104 43,25 92,38 142,38 h 1133 1 c 49,0 98,-13 141,-38 43,-25 79,-61 104,-104 25,-43 38,-92 38,-141 v -1135 1 -1 c 0,-49 -13,-98 -38,-141 -25,-43 -61,-79 -104,-104 -43,-25 -92,-38 -141,-38 z"
   id="path64-6" />
       </g>
      </g><g
   class="Group"
   id="g910"
   transform="matrix(0.53067132,0,0,0.53067132,738.71029,654.62181)">
        <g
   class="com.sun.star.drawing.CustomShape"
   id="g901">
         <g
   id="id4">
          <rect
   class="BoundingBox"
   stroke="none"
   fill="none"
   x="784"
   y="449"
   width="943"
   height="1121"
   id="rect896" />
          <path
   fill="#eeeeee"
   stroke="none"
   d="M 1361,1090 997,1568 784,1406 1512,450 1725,612 Z"
   id="path898" />
         </g>
        </g>
        <g
   class="com.sun.star.drawing.CustomShape"
   id="g908"
   style="stroke-width:28.2745;stroke-dasharray:none">
         <g
   id="id5"
   style="stroke-width:28.2745;stroke-dasharray:none">
          <rect
   class="BoundingBox"
   stroke="none"
   fill="none"
   x="300"
   y="800"
   width="657"
   height="607"
   id="rect903"
   style="stroke-width:28.2745;stroke-dasharray:none" />
          <path
   fill="#eeeeee"
   stroke="none"
   d="M 713,999 956,1198 785,1406 300,1008 471,800 Z"
   id="path905"
   style="stroke-width:28.2745;stroke-dasharray:none" />
         </g>
        </g>
       </g><rect
   style="fill:#eeeeee;fill-opacity:1;stroke:#eeeeee;stroke-width:18;stroke-linecap:round;stroke-linejoin:round;stroke-dasharray:none;stroke-opacity:1"
   id="rect2011"
   width="1260.5619"
   height="180.25781"
   x="367.65137"
   y="407.66904"
   ry="30.819349" /><rect
   style="fill:#eeeeee;fill-opacity:1;stroke:#eeeeee;stroke-width:11.1811;stroke-linecap:round;stroke-linejoin:round;stroke-dasharray:none;stroke-opacity:1"
   id="rect2011-3"
   width="468.66208"
   height="187.07675"
   x="367.90237"
   y="857.74396"
   ry="31.985209" /><rect
   style="fill:#eeeeee;fill-opacity:1;stroke:#eeeeee;stroke-width:11.1811;stroke-linecap:round;stroke-linejoin:round;stroke-dasharray:none;stroke-opacity:1"
   id="rect2011-3-6"
   width="468.66208"
   height="187.07675"
   x="372.37143"
   y="1306.6761"
   ry="31.985209" /></svg>
